<svg width="48" height="48" viewBox="0 0 48 48" fill="none" xmlns="http://www.w3.org/2000/svg">
<g clip-path="url(#clip0_8_508)">
<path d="M24.984 1.5436C27.4395 1.5061 29.877 1.5256 32.313 1.5061C32.394 4.5526 33.63 7.2946 35.5965 9.3256L35.5935 9.3226C37.71 11.2291 40.464 12.4651 43.5 12.6751L43.542 12.6781V20.2321C40.674 20.1601 37.977 19.4986 35.5455 18.3616L35.6685 18.4126C34.4925 17.8471 33.498 17.2666 32.553 16.6186L32.631 16.6696C32.613 22.1431 32.649 27.6166 32.5935 33.0706C32.439 35.8501 31.515 38.3851 30.033 40.5016L30.063 40.4551C27.585 44.0041 23.571 46.3336 19.0065 46.4716H18.9855C18.801 46.4806 18.5835 46.4851 18.3645 46.4851C15.7695 46.4851 13.344 45.7621 11.277 44.5066L11.337 44.5411C7.57501 42.2776 4.98001 38.4046 4.50001 33.9001L4.49401 33.8386C4.45651 32.9011 4.43851 31.9636 4.47601 31.0456C5.21101 23.8771 11.217 18.3316 18.5175 18.3316C19.338 18.3316 20.142 18.4021 20.9235 18.5356L20.8395 18.5236C20.877 21.2971 20.7645 24.0721 20.7645 26.8456C20.13 26.6161 19.398 26.4826 18.6345 26.4826C15.8325 26.4826 13.449 28.2736 12.567 30.7741L12.5535 30.8191C12.354 31.4596 12.2385 32.1961 12.2385 32.9581C12.2385 33.2671 12.258 33.5731 12.294 33.8731L12.291 33.8371C12.789 36.9061 15.42 39.2221 18.5925 39.2221C18.684 39.2221 18.774 39.2206 18.864 39.2161H18.8505C21.045 39.1501 22.95 37.9696 24.027 36.2251L24.042 36.1981C24.4425 35.6401 24.717 34.9651 24.8085 34.2316L24.81 34.2106C24.9975 30.8551 24.9225 27.5191 24.9405 24.1636C24.9585 16.6096 24.9225 9.0736 24.978 1.5391L24.984 1.5436Z" fill="#E8E8E8"/>
<path fill-rule="evenodd" clip-rule="evenodd" d="M107 46H187V-154H107V46ZM-93 46H-13V-154H-93V46ZM307 98.2852V-274H-253V206H-93V324.125L9.3999 206H200.6L307 98.2852ZM183.28 326H26.7198L-77.52 446H-173V326H-373V-214.801L-321 -354H387V132.914L183.28 326Z" fill="#E8E8E8"/>
</g>
<defs>
<clipPath id="clip0_8_508">
<rect width="48" height="48" fill="white"/>
</clipPath>
</defs>
</svg>
