<svg width="48" height="48" viewBox="0 0 48 48" fill="none" xmlns="http://www.w3.org/2000/svg">
<path d="M45.0728 12.9596C44.8227 11.9957 44.3213 11.1155 43.6196 10.4089C42.9178 9.7023 42.0412 9.19462 41.079 8.93776C35.2459 8.2498 29.3743 7.93978 23.501 8.00964C17.6278 7.93978 11.7562 8.2498 5.92301 8.93776C4.96092 9.19462 4.08424 9.7023 3.38258 10.4089C2.68089 11.1155 2.1794 11.9957 1.92928 12.9596C1.29031 16.5426 0.979648 20.1764 1.00116 23.8158C0.978579 27.474 1.28925 31.1265 1.92928 34.7282C2.19236 35.6766 2.69962 36.5392 3.40044 37.2302C4.10122 37.9212 4.97104 38.4162 5.92301 38.6657C11.7562 39.3536 17.6278 39.6638 23.501 39.5938C29.3743 39.6638 35.2459 39.3536 41.079 38.6657C42.0311 38.4162 42.901 37.9212 43.6016 37.2302C44.3024 36.5392 44.8098 35.6766 45.0728 34.7282C45.7129 31.1265 46.0234 27.474 46.0009 23.8158C46.0225 20.1764 45.7118 16.5426 45.0728 12.9596ZM18.8885 30.5376V17.1502L30.6728 23.8158L18.8885 30.5095V30.5376Z" fill="#E8E8E8"/>
</svg>
